{
	"patcher" : 	{
		"fileversion" : 1,
		"rect" : [ 504.0, 44.0, 640.0, 506.0 ],
		"bglocked" : 0,
		"defrect" : [ 504.0, 44.0, 640.0, 506.0 ],
		"openrect" : [ 0.0, 0.0, 0.0, 0.0 ],
		"openinpresentation" : 0,
		"default_fontsize" : 12.0,
		"default_fontface" : 0,
		"default_fontname" : "Arial",
		"gridonopen" : 0,
		"gridsize" : [ 15.0, 15.0 ],
		"gridsnaponopen" : 0,
		"toolbarvisible" : 1,
		"boxanimatetime" : 200,
		"imprint" : 0,
		"boxes" : [ 			{
				"box" : 				{
					"maxclass" : "newobj",
					"text" : "udpsend localhost 9000",
					"fontsize" : 10.0,
					"patching_rect" : [ 79.0, 292.0, 130.0, 19.0 ],
					"id" : "obj-17",
					"numinlets" : 1,
					"fontname" : "Verdana",
					"numoutlets" : 0
				}

			}
, 			{
				"box" : 				{
					"maxclass" : "button",
					"outlettype" : [ "bang" ],
					"patching_rect" : [ 78.0, 222.0, 20.0, 20.0 ],
					"id" : "obj-16",
					"numinlets" : 1,
					"numoutlets" : 1
				}

			}
, 			{
				"box" : 				{
					"maxclass" : "newobj",
					"text" : "prepend name",
					"outlettype" : [ "" ],
					"fontsize" : 12.0,
					"patching_rect" : [ 119.0, 224.0, 100.0, 20.0 ],
					"id" : "obj-14",
					"numinlets" : 1,
					"fontname" : "Arial",
					"numoutlets" : 1
				}

			}
, 			{
				"box" : 				{
					"maxclass" : "newobj",
					"text" : "print _RESOLVE_",
					"fontsize" : 10.0,
					"patching_rect" : [ 222.0, 292.0, 97.0, 19.0 ],
					"id" : "obj-10",
					"numinlets" : 1,
					"fontname" : "Verdana",
					"numoutlets" : 0
				}

			}
, 			{
				"box" : 				{
					"maxclass" : "newobj",
					"text" : "zeroconf.resolve @name \"Un autre service\" @type _osc._udp @domain local.",
					"outlettype" : [ "" ],
					"fontsize" : 10.0,
					"patching_rect" : [ 78.0, 255.0, 399.0, 19.0 ],
					"id" : "obj-11",
					"numinlets" : 1,
					"fontname" : "Verdana",
					"numoutlets" : 1
				}

			}
, 			{
				"box" : 				{
					"maxclass" : "newobj",
					"text" : "zeroconf.service @name \"Open Sound Control UDP Service\" @port 4321 @type _osc._udp",
					"fontsize" : 10.0,
					"patching_rect" : [ 72.0, 400.0, 465.0, 19.0 ],
					"id" : "obj-5",
					"numinlets" : 1,
					"fontname" : "Verdana",
					"numoutlets" : 0
				}

			}
, 			{
				"box" : 				{
					"maxclass" : "newobj",
					"text" : "zeroconf.service @name \"Un autre service\" @port 6666 @type _osc._udp",
					"fontsize" : 10.0,
					"patching_rect" : [ 72.0, 423.0, 380.0, 19.0 ],
					"id" : "obj-6",
					"numinlets" : 1,
					"fontname" : "Verdana",
					"numoutlets" : 0
				}

			}
, 			{
				"box" : 				{
					"maxclass" : "newobj",
					"text" : "zeroconf.service @name \"Open Sound Control UDP Service\" @port 12345 @type _osc._udp",
					"fontsize" : 10.0,
					"patching_rect" : [ 72.0, 377.0, 471.0, 19.0 ],
					"id" : "obj-4",
					"numinlets" : 1,
					"fontname" : "Verdana",
					"numoutlets" : 0
				}

			}
, 			{
				"box" : 				{
					"maxclass" : "button",
					"outlettype" : [ "bang" ],
					"patching_rect" : [ 191.0, 135.0, 20.0, 20.0 ],
					"id" : "obj-9",
					"numinlets" : 1,
					"numoutlets" : 1
				}

			}
, 			{
				"box" : 				{
					"maxclass" : "umenu",
					"outlettype" : [ "int", "", "" ],
					"items" : [ "Open Sound Control UDP Service", ",", "Open Sound Control UDP Service (2)", ",", "Un autre service" ],
					"fontsize" : 12.0,
					"patching_rect" : [ 78.0, 190.0, 266.0, 20.0 ],
					"id" : "obj-7",
					"types" : [  ],
					"numinlets" : 1,
					"fontname" : "Arial",
					"numoutlets" : 3
				}

			}
, 			{
				"box" : 				{
					"maxclass" : "newobj",
					"text" : "zeroconf.browser @type _smb._tcp @domain local.",
					"outlettype" : [ "" ],
					"fontsize" : 10.0,
					"patching_rect" : [ 78.0, 163.0, 268.0, 19.0 ],
					"id" : "obj-3",
					"numinlets" : 1,
					"fontname" : "Verdana",
					"numoutlets" : 1
				}

			}
, 			{
				"box" : 				{
					"maxclass" : "newobj",
					"text" : "prepend browse",
					"outlettype" : [ "" ],
					"fontsize" : 12.0,
					"patching_rect" : [ 78.0, 134.0, 100.0, 20.0 ],
					"id" : "obj-2",
					"numinlets" : 1,
					"fontname" : "Arial",
					"numoutlets" : 1
				}

			}
, 			{
				"box" : 				{
					"maxclass" : "umenu",
					"outlettype" : [ "int", "", "" ],
					"items" : [ "_osc._udp", ",", "_afpovertcp._tcp", ",", "_smb._tcp" ],
					"fontsize" : 12.0,
					"patching_rect" : [ 78.0, 105.0, 148.0, 20.0 ],
					"id" : "obj-1",
					"types" : [  ],
					"numinlets" : 1,
					"fontname" : "Arial",
					"numoutlets" : 3
				}

			}
 ],
		"lines" : [ 			{
				"patchline" : 				{
					"source" : [ "obj-9", 0 ],
					"destination" : [ "obj-3", 0 ],
					"hidden" : 0,
					"midpoints" : [ 200.5, 158.5, 87.5, 158.5 ]
				}

			}
, 			{
				"patchline" : 				{
					"source" : [ "obj-7", 0 ],
					"destination" : [ "obj-16", 0 ],
					"hidden" : 0,
					"midpoints" : [  ]
				}

			}
, 			{
				"patchline" : 				{
					"source" : [ "obj-7", 1 ],
					"destination" : [ "obj-14", 0 ],
					"hidden" : 0,
					"midpoints" : [ 211.0, 216.5, 128.5, 216.5 ]
				}

			}
, 			{
				"patchline" : 				{
					"source" : [ "obj-3", 0 ],
					"destination" : [ "obj-7", 0 ],
					"hidden" : 0,
					"midpoints" : [  ]
				}

			}
, 			{
				"patchline" : 				{
					"source" : [ "obj-2", 0 ],
					"destination" : [ "obj-3", 0 ],
					"hidden" : 0,
					"midpoints" : [  ]
				}

			}
, 			{
				"patchline" : 				{
					"source" : [ "obj-16", 0 ],
					"destination" : [ "obj-11", 0 ],
					"hidden" : 0,
					"midpoints" : [  ]
				}

			}
, 			{
				"patchline" : 				{
					"source" : [ "obj-14", 0 ],
					"destination" : [ "obj-11", 0 ],
					"hidden" : 0,
					"midpoints" : [ 128.5, 249.0, 87.5, 249.0 ]
				}

			}
, 			{
				"patchline" : 				{
					"source" : [ "obj-11", 0 ],
					"destination" : [ "obj-17", 0 ],
					"hidden" : 0,
					"midpoints" : [  ]
				}

			}
, 			{
				"patchline" : 				{
					"source" : [ "obj-11", 0 ],
					"destination" : [ "obj-10", 0 ],
					"hidden" : 0,
					"midpoints" : [ 87.5, 281.5, 231.5, 281.5 ]
				}

			}
, 			{
				"patchline" : 				{
					"source" : [ "obj-1", 1 ],
					"destination" : [ "obj-2", 0 ],
					"hidden" : 0,
					"midpoints" : [ 152.0, 129.0, 87.5, 129.0 ]
				}

			}
 ]
	}

}
